REM DIRINDEX 1\2\6,1\2\7,1\2\8,1\2\9,1\3\10,1\3\11,1\4\12,1\4\13,1\4\14,1\5\15,1\5\16,1\5\17
REM DIRNAME folder01,folder02,folder03,folder04,folder05,folder06,folder07,folder08,folder09,folder10,folder11,folder12,folder13,folder14,folder15,folder16,folder17
TITLE ""
FILE "1900_2_sec05_0416_0431.mp3" MP3
  TRACK 01 AUDIO
    TITLE "0:"
    INDEX 01 00:00:00
  TRACK 02 AUDIO
    TITLE "13:cjc020_2935"
    INDEX 01 00:00:17
  TRACK 03 AUDIO
    TITLE "0:"
    INDEX 01 00:01:36
  TRACK 04 AUDIO
    TITLE "14:cjc020_2936"
    INDEX 01 00:01:38
  TRACK 05 AUDIO
    TITLE "0:"
    INDEX 01 00:05:20
  TRACK 06 AUDIO
    TITLE "13:cjc020_2937"
    INDEX 01 00:06:00
  TRACK 07 AUDIO
    TITLE "0:"
    INDEX 01 00:07:09
  TRACK 08 AUDIO
    TITLE "14:cjc020_2938"
    INDEX 01 00:07:13
  TRACK 09 AUDIO
    TITLE "0:"
    INDEX 01 00:09:28
  TRACK 10 AUDIO
    TITLE "13:cjc020_2939"
    INDEX 01 00:10:10
  TRACK 11 AUDIO
    TITLE "0:"
    INDEX 01 00:11:17
  TRACK 12 AUDIO
    TITLE "14:cjc020_2940"
    INDEX 01 00:11:23
  TRACK 13 AUDIO
    TITLE "0:"
    INDEX 01 00:12:32
  TRACK 14 AUDIO
    TITLE "13:cjc020_2941"
    INDEX 01 00:13:12
  TRACK 15 AUDIO
    TITLE "0:"
    INDEX 01 00:14:15
  TRACK 16 AUDIO
    TITLE "14:cjc020_2942"
    INDEX 01 00:14:17
  TRACK 17 AUDIO
    TITLE "0:"
    INDEX 01 00:16:51
  TRACK 18 AUDIO
    TITLE "13:cjc020_2943"
    INDEX 01 00:17:33
  TRACK 19 AUDIO
    TITLE "0:"
    INDEX 01 00:18:39
  TRACK 20 AUDIO
    TITLE "14:cjc020_2944"
    INDEX 01 00:18:44
  TRACK 21 AUDIO
    TITLE "0:"
    INDEX 01 00:19:69
  TRACK 22 AUDIO
    TITLE "13:cjc020_2945"
    INDEX 01 00:20:47
  TRACK 23 AUDIO
    TITLE "0:"
    INDEX 01 00:21:74
  TRACK 24 AUDIO
    TITLE "14:cjc020_2946"
    INDEX 01 00:22:03
  TRACK 25 AUDIO
    TITLE "0:"
    INDEX 01 00:23:24
  TRACK 26 AUDIO
    TITLE "13:cjc020_2947"
    INDEX 01 00:24:04
  TRACK 27 AUDIO
    TITLE "0:"
    INDEX 01 00:25:09
  TRACK 28 AUDIO
    TITLE "14:cjc020_2948"
    INDEX 01 00:25:11
  TRACK 29 AUDIO
    TITLE "0:"
    INDEX 01 00:27:32
  TRACK 30 AUDIO
    TITLE "13:cjc020_2949"
    INDEX 01 00:28:13
  TRACK 31 AUDIO
    TITLE "0:"
    INDEX 01 00:29:27
  TRACK 32 AUDIO
    TITLE "14:cjc020_2950"
    INDEX 01 00:29:34
  TRACK 33 AUDIO
    TITLE "0:"
    INDEX 01 00:30:61
  TRACK 34 AUDIO
    TITLE "13:cjc020_2951"
    INDEX 01 00:31:41
  TRACK 35 AUDIO
    TITLE "0:"
    INDEX 01 00:32:56
  TRACK 36 AUDIO
    TITLE "14:cjc020_2952"
    INDEX 01 00:32:58
  TRACK 37 AUDIO
    TITLE "0:"
    INDEX 01 00:33:69
  TRACK 38 AUDIO
    TITLE "13:cjc020_2953"
    INDEX 01 00:34:49
  TRACK 39 AUDIO
    TITLE "0:"
    INDEX 01 00:35:55
  TRACK 40 AUDIO
    TITLE "14:cjc020_2954"
    INDEX 01 00:35:59
  TRACK 41 AUDIO
    TITLE "0:"
    INDEX 01 00:36:66
  TRACK 42 AUDIO
    TITLE "13:cjc020_2955"
    INDEX 01 00:37:48
  TRACK 43 AUDIO
    TITLE "0:"
    INDEX 01 00:38:59
  TRACK 44 AUDIO
    TITLE "14:cjc020_2956"
    INDEX 01 00:38:63
  TRACK 45 AUDIO
    TITLE "0:"
    INDEX 01 00:39:47
  TRACK 46 AUDIO
    TITLE "13:cjc020_2957"
    INDEX 01 00:40:30
  TRACK 47 AUDIO
    TITLE "0:"
    INDEX 01 00:41:36
  TRACK 48 AUDIO
    TITLE "14:cjc020_2958"
    INDEX 01 00:41:44
  TRACK 49 AUDIO
    TITLE "0:"
    INDEX 01 00:43:46
  TRACK 50 AUDIO
    TITLE "13:cjc020_2959"
    INDEX 01 00:44:26
  TRACK 51 AUDIO
    TITLE "0:"
    INDEX 01 00:45:28
  TRACK 52 AUDIO
    TITLE "14:cjc020_2960"
    INDEX 01 00:45:33
  TRACK 53 AUDIO
    TITLE "0:"
    INDEX 01 00:47:62
  TRACK 54 AUDIO
    TITLE "13:cjc020_2961"
    INDEX 01 00:48:46
  TRACK 55 AUDIO
    TITLE "0:"
    INDEX 01 00:49:43
  TRACK 56 AUDIO
    TITLE "14:cjc020_2962"
    INDEX 01 00:49:49
  TRACK 57 AUDIO
    TITLE "0:"
    INDEX 01 00:52:73
  TRACK 58 AUDIO
    TITLE "13:cjc020_2963"
    INDEX 01 00:53:53
  TRACK 59 AUDIO
    TITLE "0:"
    INDEX 01 00:54:64
  TRACK 60 AUDIO
    TITLE "14:cjc020_2964"
    INDEX 01 00:54:68
  TRACK 61 AUDIO
    TITLE "0:"
    INDEX 01 00:57:45
  TRACK 62 AUDIO
    TITLE "13:cjc020_2965"
    INDEX 01 00:58:22
  TRACK 63 AUDIO
    TITLE "0:"
    INDEX 01 00:59:18
  TRACK 64 AUDIO
    TITLE "14:cjc020_2966"
    INDEX 01 00:59:22
  TRACK 65 AUDIO
    TITLE "0:"
    INDEX 01 01:02:30
